<?xml version="1.0" encoding="UTF-8" standalone="no"?>
<!-- Created with Inkscape (http://www.inkscape.org/) -->
<svg id="svg2" xmlns:rdf="http://www.w3.org/1999/02/22-rdf-syntax-ns#" xmlns="http://www.w3.org/2000/svg" xmlns:osb="http://www.openswatchbook.org/uri/2009/osb" height="128mm" width="32mm" version="1.1" xmlns:cc="http://creativecommons.org/ns#" viewBox="0 0 113.38583 453.54331" xmlns:dc="http://purl.org/dc/elements/1.1/">
 <defs id="defs4">
  <filter id="filter10710" style="color-interpolation-filters:sRGB">
   <feOffset id="feOffset10712" dx="3" dy="3"/>
   <feGaussianBlur id="feGaussianBlur10714" stdDeviation="3" result="blur"/>
   <feFlood id="feFlood10716" result="flood" flood-color="rgb(0,0,0)"/>
   <feComposite id="feComposite10718" operator="in" result="composite" in2="SourceGraphic" in="flood"/>
   <feBlend id="feBlend10720" mode="normal" in2="composite" in="blur"/>
  </filter>
  <filter id="filter10722" style="color-interpolation-filters:sRGB">
   <feOffset id="feOffset10724" dx="3" dy="3"/>
   <feGaussianBlur id="feGaussianBlur10726" stdDeviation="3" result="blur"/>
   <feFlood id="feFlood10728" result="flood" flood-color="rgb(0,0,0)"/>
   <feComposite id="feComposite10730" operator="in" result="composite" in2="SourceGraphic" in="flood"/>
   <feBlend id="feBlend10732" mode="normal" in2="composite" in="blur"/>
  </filter>
  <filter id="filter10734" style="color-interpolation-filters:sRGB">
   <feOffset id="feOffset10736" dx="3" dy="3"/>
   <feGaussianBlur id="feGaussianBlur10738" stdDeviation="3" result="blur"/>
   <feFlood id="feFlood10740" result="flood" flood-color="rgb(0,0,0)"/>
   <feComposite id="feComposite10742" operator="in" result="composite" in2="SourceGraphic" in="flood"/>
   <feBlend id="feBlend10744" mode="normal" in2="composite" in="blur"/>
  </filter>
  <filter id="filter10746" style="color-interpolation-filters:sRGB">
   <feOffset id="feOffset10748" dx="3" dy="3"/>
   <feGaussianBlur id="feGaussianBlur10750" stdDeviation="3" result="blur"/>
   <feFlood id="feFlood10752" result="flood" flood-color="rgb(0,0,0)"/>
   <feComposite id="feComposite10754" operator="in" result="composite" in2="SourceGraphic" in="flood"/>
   <feBlend id="feBlend10756" mode="normal" in2="composite" in="blur"/>
  </filter>
  <filter id="filter10758" style="color-interpolation-filters:sRGB">
   <feOffset id="feOffset10760" dx="3" dy="3"/>
   <feGaussianBlur id="feGaussianBlur10762" stdDeviation="3" result="blur"/>
   <feFlood id="feFlood10764" result="flood" flood-color="rgb(0,0,0)"/>
   <feComposite id="feComposite10766" operator="in" result="composite" in2="SourceGraphic" in="flood"/>
   <feBlend id="feBlend10768" mode="normal" in2="composite" in="blur"/>
  </filter>
 </defs>
 <metadata id="metadata7">
  <rdf:RDF>
   <cc:Work rdf:about="">
    <dc:format>image/svg+xml</dc:format>
    <dc:type rdf:resource="http://purl.org/dc/dcmitype/StillImage"/>
    <dc:title/>
   </cc:Work>
  </rdf:RDF>
 </metadata>
 <g id="layer1" fill="#a08850" transform="translate(0 -598.82)">
  <g id="text21158" filter="url(#filter10710)">
   <path id="path16371" style="" d="m93.855 706.18c-3.6-0.36-5.4-0.54-7.92-0.54-3.42 0-6.48 0.36-9.54 1.08-4.86 1.26-13.5 7.38-20.7 14.58-8.82 9-11.88 17.28-18.9 50.76-4.86 23.04-9.54 29.7-20.88 29.7-1.44 0-3.6 0-5.58-0.18-2.52 2.52-3.6 3.78-6.3 7.2 8.64-0.36 13.14-0.54 17.64-0.54 4.68 0 13.86 0.36 27.54 0.9 29.52 1.44 30.78 1.44 35.46 1.44 9.36 0 13.32-1.98 16.56-8.64 2.16-4.14 7.74-16.56 10.44-23.4l-1.98-3.42c-11.7 24.66-13.68 25.74-44.64 25.56h-34.02l4.86-4.68c9.54-8.82 10.8-11.16 15.3-29.88 5.22-22.32 7.74-32.22 10.08-39.24 2.7-7.56 7.38-10.98 14.94-10.98 2.34 0 3.96 0 10.62 0.36l7.02-10.08z"/>
  </g>
  <g id="text21162" transform="scale(.81278 1.2303)" filter="url(#filter10722)">
   <path id="path16374" style="" d="m4.6425 743.88c2.6334 0.1463 4.8279 0.1463 6.291 0.1463 11.411 0 19.019-3.3649 25.31-11.119 4.6816-5.9984 6.4373-9.6559 9.9485-21.653 1.6093-5.852 7.0225-25.749 9.5096-35.844 5.1205 52.815 5.2668 53.985 5.5594 65.689l7.1688-5.5594c5.1205-10.973 14.923-26.188 39.062-60.569l-1.463 6.4372c-0.43891 2.1945-1.6093 6.5836-3.3649 13.021-8.4855 31.601-10.241 38.331-10.534 39.062-1.1704 3.3649-1.9019 6.4372-1.9019 8.4855 0 2.0482 1.6093 3.8038 3.5112 3.8038 0.73151 0 1.6093-0.1463 2.7797-0.2926 1.463-0.2926 10.095-1.7556 13.752-2.3408l6.8762-0.87781c0.43891-0.1463 1.6093-0.2926 3.5112-0.5852l3.0723-3.6575c-2.4871 0.1463-4.8279 0.2926-5.5594 0.4389-2.4871 0.1463-4.8279 0.2926-5.9984 0.2926-4.6816 0-7.3151-2.1945-7.3151-5.852 0-3.8038 0.1463-4.6816 3.9501-20.19 6.291-25.456 6.7299-27.212 9.5096-37.161 5.852-20.336 6.5836-21.945 10.387-21.945 1.3167 0 3.2186 0.1463 5.1206 0.58521 0.4389 0.1463 2.1945 0.4389 3.9501 0.73151l5.9984-8.1929c-2.6334-0.7315-4.0964-0.8778-5.852-0.8778-3.8038 0-7.0225 1.1704-12.289 4.2427-8.1929 4.6816-9.6559 5.9984-14.923 13.46l-19.751 27.505-16.532 23.993-3.6575 5.2668c-1.901-22.24-5.705-54.57-7.607-64.81l-4.5353 3.6575c-5.5594-0.7315-8.3392-0.87781-11.85-0.87781-9.8022 0-15.654 2.4871-22.53 9.6559-7.9003 7.9003-12.582 17.264-12.582 24.725 0 4.2427 0.87781 8.0466 3.3649 13.46l11.119-7.754c-3.5112-7.6077-4.6816-11.265-4.6816-15.508 0-9.5096 7.1688-14.776 19.897-14.776 3.3649 0 5.7057 0.1463 10.534 0.87781-6.4373 26.188-14.338 53.546-16.971 58.228-2.7797 5.1206-6.4373 7.3151-12.728 7.3151-2.4871 0-2.4871 0-10.826-0.73151l-6.7299 10.095z"/>
  </g>
  <g id="text21166" opacity="0.93" transform="scale(.95389 1.0483)" filter="url(#filter10734)">
   <path id="path16377" style="" d="m66.356 928.09 10.989-44.127 27.472 0.6868c2.2321-1.8887 7.2114-5.6661 10.817-7.8982 0.85851-2.0604 1.0302-2.4038 1.717-4.8076-7.2114 4.4642-13.221 6.0095-22.836 6.0095l-23.008-0.1717c-18.544 0-29.361 2.7472-38.804 9.4435-9.6152 7.0397-15.453 19.059-15.453 31.593 0 4.1208 0.5151 7.0397 2.2321 13.221l14.423-6.5246c-2.7472-8.0699-3.434-11.847-3.434-16.998 0-15.453 10.13-25.068 26.098-25.068 2.0604 0 4.9793 0.1717 8.2416 0.5151l-10.989 44.127-6.1812 7.8982h4.2925l-4.6359 18.372c-6.868 27.472-10.989 32.28-27.3 32.28-2.2321 0-5.151-0.1717-11.504-0.34341l-6.6963 11.161c3.6057 0.3434 6.6963 0.5151 8.585 0.5151 10.302 0 17.685-3.2623 29.017-12.534 12.534-10.13 16.998-17.513 21.119-33.825l4.1208-16.483c9.7869-0.5151 17.857-1.0302 18.372-1.2019 4.8076-0.6868 6.1812-1.5453 10.474-5.8378h-27.129z"/>
  </g>
  <g id="text21052" transform="scale(.95749 1.0444)" filter="url(#filter10758)">
   <path id="path16381" fill="#a08850" d="m2.8228 679.35h21.888c28.438 0 35.331-0.51705 44.466-3.7917 13.788-4.6534 27.92-13.616 34.642-21.888 8.7898-10.858 14.994-28.955 14.994-43.604 0-11.892-6.2045-20.854-17.924-26.025-7.411-3.2746-16.201-4.6534-32.919-5.6875l1.2064-4.8258-12.409 5.1705c-14.133 2.4129-23.095 5.5152-32.229 11.375-14.65 9.4792-21.716 21.027-21.716 35.676 0 3.2746 0.17235 5.3428 1.2064 9.8239l14.133-6.3769c-1.0341-4.4811-1.2064-6.5492-1.2064-9.6515 0-20.509 12.754-32.574 36.883-34.987l-12.926 51.36c-6.7216 28.782-11.203 34.125-29.816 35.504l-8.2727 7.928zm63.769-95.66c12.581 0.51704 18.441 1.5511 23.784 4.3087 8.4451 4.4811 13.443 13.96 13.443 25.508 0 14.822-5.6875 33.263-13.443 43.087-8.4451 10.858-18.614 14.994-36.366 14.994h-2.5852l-22.061-0.68939c19.992-18.614 19.992-18.614 27.748-49.809l9.4792-37.4z"/>
  </g>
 </g>
</svg>
