<?xml version="1.0" encoding="UTF-8" standalone="no"?>
<!-- Created with Inkscape (http://www.inkscape.org/) -->
<svg id="svg2" xmlns:rdf="http://www.w3.org/1999/02/22-rdf-syntax-ns#" xmlns="http://www.w3.org/2000/svg" xmlns:osb="http://www.openswatchbook.org/uri/2009/osb" height="128mm" width="128mm" version="1.1" xmlns:cc="http://creativecommons.org/ns#" viewBox="0 0 453.54331 453.54331" xmlns:dc="http://purl.org/dc/elements/1.1/">
 <defs id="defs4">
  <marker id="Arrow1Sstart" refY="0.0" refX="0.0" orient="auto" overflow="visible">
   <path id="path9632" d="m0 0l5-5-17.5 5 17.5 5-5-5z" fill-rule="evenodd" transform="scale(.2) translate(6)" stroke="#000" stroke-width="1pt"/>
  </marker>
 </defs>
 <metadata id="metadata7">
  <rdf:RDF>
   <cc:Work rdf:about="">
    <dc:format>image/svg+xml</dc:format>
    <dc:type rdf:resource="http://purl.org/dc/dcmitype/StillImage"/>
    <dc:title/>
   </cc:Work>
  </rdf:RDF>
 </metadata>
 <g id="layer1" transform="translate(0 -598.82)">
  <g>
   <path id="path9595" d="m241.9 1040.9-215.23-129.44-0.956-230.53 212.39 75.77z" fill="#f00"/>
   <path id="path9598" d="m433.33 946.65-192.38 96.191-3.8095-283.81 195.24-57.143z" fill="#0f0"/>
   <path id="path9601" d="m434.29 702.84-193.34 55.24-216.19-78.1 215.24-49.52z" fill="#8080ff"/>
   <text id="text9604" style="word-spacing:0px;letter-spacing:0px;text-anchor:middle;text-align:center" xml:space="preserve" transform="matrix(1.2506 .48604 -.00030852 .79948 0 0)" line-height="125%" font-size="316.37px" y="1104.3118" x="109.23001" font-family="&apos;URW Gothic L&apos;" fill="#000000"><tspan id="tspan9606" x="109.23001" y="1104.3118">3</tspan></text>
   <text id="text9608" style="word-spacing:0px;letter-spacing:0px;text-anchor:middle;text-align:center" xml:space="preserve" transform="matrix(.92526 -.36029 0 1.0808 0 0)" line-height="125%" font-size="262.79px" y="1014.6588" x="362.2518" font-family="&apos;URW Gothic L&apos;" fill="#000000"><tspan id="tspan9610" x="362.2518" y="1014.6588">D</tspan></text>
  </g>
  <path id="path9614" fill="none" marker-start="url(#Arrow1Sstart)" stroke="#000" stroke-width="10" d="m252.83 720.15a106.67 27.619 0 0 1 -117.37 -12.928 106.67 27.619 0 0 1 14.396 -32.814 106.67 27.619 0 0 1 125.57 -5.7828 106.67 27.619 0 0 1 57.209 29.517"/>
 </g>
</svg>
