<?xml version="1.0" encoding="UTF-8" standalone="no"?>
<!-- Created with Inkscape (http://www.inkscape.org/) -->
<svg id="svg2" xmlns:rdf="http://www.w3.org/1999/02/22-rdf-syntax-ns#" xmlns="http://www.w3.org/2000/svg" xmlns:osb="http://www.openswatchbook.org/uri/2009/osb" height="128mm" width="128mm" version="1.1" xmlns:cc="http://creativecommons.org/ns#" viewBox="0 0 453.54331 453.54331" xmlns:dc="http://purl.org/dc/elements/1.1/">
 <metadata id="metadata7">
  <rdf:RDF>
   <cc:Work rdf:about="">
    <dc:format>image/svg+xml</dc:format>
    <dc:type rdf:resource="http://purl.org/dc/dcmitype/StillImage"/>
    <dc:title/>
   </cc:Work>
  </rdf:RDF>
 </metadata>
 <g id="layer1" transform="translate(0 -598.82)">
  <ellipse id="path5496" rx="182.07" ry="189.69" stroke="#608ea2" cy="824.74" cx="227.62" stroke-width="46.9" fill="none"/>
  <g id="text6136" fill="#608ea2" transform="scale(1.3251 .75467)">
   <path id="path4201" style="" d="m198.86 1189.7c-4.8468 14.54-18.31 46.313-30.158 47.39-6.4623 0-8.0779-3.2312-8.0779-7.5394 0-4.8468 3.2312-10.232 3.2312-15.617l45.775-140.02c1.6156-5.9238 2.1541-11.848 2.1541-17.233 0-24.234-17.233-37.158-36.62-37.158-43.082 0-66.239 39.851-78.625 69.47l30.696 4.8468c6.4623-12.925 14.54-39.851 26.388-44.698 1.0771 2.6927 1.6156 5.9238 1.6156 10.771 0 4.3082-0.53852 9.155-2.1541 15.079l-45.775 133.02c-3.2312 9.155-5.3853 19.387-5.3853 28.004 0 15.617 9.155 28.542 46.313 28.542 42.544 0 65.7-35.004 81.856-63.546l-31.24-11.3zm-27.47-222.94c0 14.54 10.232 24.772 25.849 24.772 18.848 0 43.082-17.771 43.082-40.39 0-14.54-10.771-25.311-26.388-25.311-19.387 0-42.544 17.771-42.544 40.928z"/>
  </g>
 </g>
</svg>
